<?xml version="1.0" standalone="no"?>
<!DOCTYPE svg PUBLIC "-//W3C//DTD SVG 20010904//EN"
 "http://www.w3.org/TR/2001/REC-SVG-20010904/DTD/svg10.dtd">
<svg version="1.0" xmlns="http://www.w3.org/2000/svg"
 width="1859.000000pt" height="1815.000000pt" viewBox="0 0 1859.000000 1815.000000"
 preserveAspectRatio="xMidYMid meet">

<g transform="translate(0.000000,1815.000000) scale(0.100000,-0.100000)"
fill="rgb(31, 78, 169)" stroke="none">
<path d="M9135 18139 c-808 -23 -1633 -157 -2420 -394 -1912 -576 -3607 -1759
-4814 -3363 -167 -221 -291 -402 -291 -424 0 -183 1543 -353 5990 -659 250
-17 456 -32 458 -33 1 -2 -40 -302 -92 -667 -52 -365 -110 -774 -128 -908 -20
-150 -38 -249 -46 -258 -7 -7 -34 -13 -59 -13 -132 0 -2778 -183 -3828 -265
-2438 -191 -3665 -359 -3769 -517 -29 -44 -82 -396 -106 -698 -30 -383 -35
-1304 -9 -1765 23 -423 81 -896 155 -1260 29 -143 43 -162 153 -204 434 -165
1978 -343 4991 -575 825 -64 1673 -126 1720 -126 21 0 42 -4 45 -10 3 -5 -6
-96 -20 -202 -43 -319 -161 -1163 -206 -1475 l-42 -293 -33 0 c-44 0 -1289
-84 -1789 -120 -2359 -173 -3347 -300 -3381 -435 -8 -32 50 -120 270 -414 447
-598 951 -1127 1536 -1616 640 -534 1412 -1013 2186 -1359 226 -101 253 -100
349 6 134 149 273 554 435 1267 27 117 50 214 52 216 2 1 221 -13 488 -31 672
-45 788 -52 2415 -154 1216 -76 2007 -127 2958 -192 l167 -11 16 -56 c108
-393 185 -621 274 -808 64 -134 99 -189 156 -246 90 -90 130 -91 319 -8 446
197 977 486 1380 753 99 66 110 76 110 103 0 27 -5 32 -55 52 -167 66 -805
143 -1871 224 l-296 23 -51 211 c-65 270 -167 746 -233 1093 -40 209 -49 276
-40 281 7 5 67 11 134 15 156 9 1144 79 1567 111 1970 152 3018 285 3236 411
33 19 61 54 140 176 227 354 376 618 560 993 249 508 443 1009 593 1530 82
284 181 708 173 738 -54 206 -1825 418 -6202 742 -333 24 -684 50 -781 57
l-176 12 -47 330 c-182 1288 -254 1811 -250 1815 2 2 194 17 426 32 4951 331
6889 538 7022 751 14 24 -4 124 -75 411 -257 1031 -678 1998 -1258 2884 -79
122 -91 135 -143 163 -271 145 -1704 315 -4398 520 -505 38 -1244 92 -1969
144 -189 14 -345 27 -347 29 -2 2 -26 131 -54 288 -65 364 -182 982 -196 1030
-5 19 -20 18 506 49 2476 149 3637 251 3921 345 54 18 83 46 75 72 -7 20 -219
161 -451 300 -689 412 -1441 741 -2190 958 -349 101 -612 163 -1102 259 -753
148 -1130 183 -1758 165z m264 -104 c179 -92 396 -683 611 -1660 27 -126 55
-250 61 -274 5 -24 8 -46 5 -48 -7 -7 -1507 -96 -1512 -90 -9 9 121 593 196
882 176 683 353 1096 505 1182 46 26 94 29 134 8z m-940 -2372 c-27 -137 -72
-382 -100 -545 l-53 -298 -31 0 c-61 0 -1425 100 -2245 165 -1942 154 -3058
292 -3159 390 -20 19 -8 31 55 54 315 118 1673 247 4349 411 275 17 631 39
790 49 160 10 324 19 366 20 l75 1 -47 -247z m900 -963 c541 -38 985 -71 986
-72 4 -4 142 -851 198 -1210 43 -274 43 -278 23 -278 -12 0 -174 11 -361 24
-187 13 -731 50 -1210 82 -478 31 -874 60 -878 64 -7 7 66 504 163 1100 62
378 58 360 78 360 9 0 460 -32 1001 -70z m2001 -1655 c3365 -231 5083 -383
5988 -530 408 -67 632 -131 632 -181 0 -22 -96 -62 -227 -95 -640 -158 -2564
-335 -6173 -568 -338 -22 -640 -42 -671 -45 l-56 -5 -22 157 c-12 86 -60 411
-106 722 -47 311 -85 571 -85 577 0 18 -15 18 720 -32z m-536 -1497 c4 -26
103 -727 237 -1681 7 -43 9 -80 7 -82 -3 -3 -657 -48 -1454 -100 -797 -53
-1575 -104 -1729 -114 -154 -10 -282 -17 -284 -15 -6 6 233 1821 240 1828 2 2
189 16 414 30 226 14 475 31 555 36 80 6 503 33 940 61 437 27 845 54 905 58
61 5 122 9 136 10 23 1 28 -4 33 -31z m-3279 -2075 c-3 -21 -51 -384 -105
-807 -55 -423 -102 -771 -105 -774 -2 -3 -76 0 -162 7 -87 6 -372 27 -633 46
-2122 157 -3722 296 -4720 411 -1045 120 -1658 238 -1746 335 -23 26 -6 45 71
79 420 190 2406 397 6480 675 307 21 823 57 908 64 14 1 16 -5 12 -36z m1755
-1768 c965 -69 1829 -131 1920 -138 l165 -12 62 -435 c35 -239 94 -651 133
-914 39 -264 69 -480 68 -481 -2 -1 -367 24 -813 56 -445 31 -1201 85 -1680
118 -1625 115 -2009 142 -2012 145 -2 2 35 290 81 642 47 351 99 755 117 898
l33 259 86 -7 c47 -3 875 -62 1840 -131z m2925 -2065 c231 -17 686 -51 1010
-75 3031 -232 4495 -405 4732 -560 23 -16 24 -18 8 -35 -138 -153 -1661 -325
-4675 -530 -556 -37 -1360 -90 -1381 -90 -13 0 -19 16 -27 68 -6 37 -49 319
-96 627 -47 308 -89 577 -92 598 l-6 37 54 -5 c29 -3 242 -19 473 -35z m-350
-1372 c3 -18 45 -274 95 -568 49 -294 102 -604 117 -687 15 -84 25 -155 22
-157 -6 -6 -688 -52 -1939 -131 -1475 -93 -2890 -184 -3192 -205 -157 -11
-304 -20 -325 -20 l-39 0 53 318 c30 174 83 508 119 742 36 234 68 428 72 431
7 6 235 20 3162 200 806 49 1517 93 1580 98 63 4 150 9 192 10 l77 1 6 -32z
m-5315 -1826 c0 -23 -149 -812 -155 -819 -1 -2 -188 11 -416 27 -1884 137
-2852 247 -3086 350 -66 29 -57 45 47 78 273 89 1147 188 2645 302 1020 78
965 74 965 62z"/>
</g>
</svg>
