<?xml version="1.0" standalone="no"?>
<!DOCTYPE svg PUBLIC "-//W3C//DTD SVG 20010904//EN"
 "http://www.w3.org/TR/2001/REC-SVG-20010904/DTD/svg10.dtd">
<svg version="1.0" xmlns="http://www.w3.org/2000/svg"
 width="2479.000000pt" height="2479.000000pt" viewBox="0 0 2479.000000 2479.000000"
 preserveAspectRatio="xMidYMid meet">
<metadata>
Created by potrace 1.14, written by Peter Selinger 2001-2017
</metadata>
<g transform="translate(0.000000,2479.000000) scale(0.100000,-0.100000)"
fill="#000000" stroke="none">
<path d="M12129 24486 c-2 -2 -76 -7 -164 -10 -88 -4 -182 -9 -210 -11 -27 -2
-95 -6 -150 -10 -55 -3 -111 -8 -125 -10 -14 -2 -59 -6 -100 -10 -41 -3 -131
-13 -200 -21 -69 -8 -147 -16 -175 -19 -27 -3 -61 -8 -75 -10 -14 -2 -45 -7
-70 -10 -25 -3 -70 -10 -100 -15 -30 -6 -75 -12 -100 -15 -46 -6 -261 -42
-405 -69 -44 -8 -96 -17 -115 -21 -19 -3 -51 -10 -70 -15 -19 -5 -48 -11 -65
-14 -16 -3 -102 -22 -190 -42 -88 -20 -189 -42 -225 -50 -36 -8 -79 -19 -96
-25 -17 -5 -40 -11 -50 -13 -42 -8 -366 -100 -519 -146 -472 -144 -989 -335
-1380 -510 -22 -10 -86 -39 -143 -64 -285 -128 -589 -281 -897 -451 -188 -104
-199 -111 -320 -183 -935 -558 -1745 -1188 -2495 -1941 -265 -266 -356 -363
-561 -596 -257 -291 -537 -645 -780 -985 -185 -259 -208 -298 -191 -334 27
-60 260 -137 597 -196 33 -5 69 -12 80 -14 21 -4 87 -14 140 -22 17 -2 41 -6
55 -9 14 -2 45 -7 70 -10 25 -4 56 -8 70 -10 14 -2 63 -9 110 -15 83 -10 119
-15 190 -25 33 -4 61 -7 175 -20 28 -3 61 -8 75 -10 14 -3 55 -7 90 -10 36 -3
76 -7 90 -10 14 -2 54 -6 90 -10 70 -6 233 -23 290 -30 19 -2 64 -7 100 -10
82 -8 133 -13 190 -19 25 -3 79 -8 120 -11 41 -3 91 -8 110 -10 19 -2 64 -7
100 -10 36 -3 81 -8 100 -10 19 -2 73 -7 120 -11 47 -4 99 -8 115 -10 17 -1
68 -5 114 -9 47 -3 98 -8 115 -10 17 -2 67 -7 111 -10 44 -4 94 -8 110 -10 17
-2 66 -7 110 -10 76 -5 117 -8 253 -20 31 -3 89 -7 127 -10 39 -3 95 -7 125
-10 94 -9 152 -13 245 -20 50 -4 106 -8 125 -10 19 -2 76 -6 125 -10 50 -4
106 -8 125 -10 19 -2 78 -6 130 -10 52 -3 113 -8 135 -10 22 -2 83 -7 135 -10
52 -4 111 -8 130 -10 19 -2 80 -6 135 -10 55 -3 119 -8 143 -11 24 -2 78 -6
120 -9 116 -7 222 -15 272 -20 25 -2 86 -7 135 -10 50 -4 115 -8 145 -11 30
-2 89 -6 130 -9 70 -4 134 -9 285 -20 33 -3 96 -7 140 -10 44 -3 109 -7 145
-10 36 -3 101 -7 145 -10 44 -3 107 -8 140 -10 77 -6 216 -16 280 -20 28 -2
93 -6 145 -9 52 -4 111 -8 130 -11 19 -2 82 -7 140 -10 103 -5 176 -10 295
-20 33 -3 103 -8 155 -11 52 -4 111 -8 130 -9 19 -2 46 -3 59 -4 22 -1 23 -3
16 -68 -3 -38 -8 -79 -10 -93 -2 -14 -9 -61 -15 -106 -6 -44 -12 -89 -14 -100
-4 -19 -13 -88 -21 -152 -7 -55 -15 -116 -20 -142 -2 -14 -7 -45 -10 -70 -4
-25 -8 -56 -10 -70 -2 -14 -6 -45 -10 -70 -6 -52 -15 -114 -20 -150 -19 -120
-35 -235 -40 -285 -4 -33 -8 -62 -10 -65 -2 -3 -6 -34 -10 -70 -3 -35 -8 -67
-10 -70 -1 -3 -6 -30 -9 -61 -4 -31 -8 -66 -10 -76 -3 -11 -7 -44 -11 -74 -3
-30 -8 -61 -10 -69 -2 -8 -7 -40 -10 -70 -3 -30 -8 -66 -10 -80 -2 -14 -9 -61
-15 -106 -6 -44 -12 -91 -15 -103 -2 -13 -7 -49 -11 -80 -3 -31 -8 -58 -9 -61
-2 -3 -6 -26 -10 -50 -9 -67 -24 -107 -42 -114 -9 -4 -57 -9 -107 -11 -50 -3
-136 -8 -191 -11 -55 -4 -120 -8 -145 -9 -94 -5 -277 -16 -320 -20 -25 -2 -90
-7 -145 -10 -55 -3 -120 -8 -145 -10 -25 -2 -90 -7 -145 -10 -55 -3 -122 -8
-150 -10 -58 -5 -189 -14 -295 -20 -120 -7 -241 -15 -300 -20 -30 -2 -100 -7
-155 -10 -55 -3 -122 -8 -150 -10 -57 -5 -164 -12 -280 -20 -44 -3 -100 -8
-125 -10 -25 -2 -90 -7 -145 -10 -55 -3 -120 -8 -145 -10 -43 -3 -188 -13
-293 -20 -26 -2 -82 -6 -125 -9 -42 -4 -111 -9 -152 -11 -41 -3 -106 -7 -145
-10 -38 -3 -101 -7 -139 -10 -38 -2 -96 -6 -130 -9 -33 -3 -97 -8 -141 -11
-44 -3 -107 -8 -140 -10 -120 -10 -192 -15 -280 -20 -49 -3 -103 -7 -120 -10
-16 -2 -75 -6 -130 -10 -55 -4 -120 -8 -145 -11 -25 -2 -83 -6 -130 -10 -47
-3 -105 -7 -130 -9 -25 -2 -81 -7 -125 -10 -44 -3 -100 -8 -125 -10 -75 -6
-181 -15 -260 -20 -41 -3 -95 -8 -120 -10 -25 -3 -74 -7 -110 -10 -86 -7 -163
-13 -230 -19 -30 -3 -89 -8 -130 -12 -41 -3 -91 -7 -110 -9 -19 -2 -71 -6
-115 -10 -44 -3 -91 -8 -105 -10 -14 -2 -63 -7 -110 -10 -47 -4 -98 -8 -115
-9 -16 -2 -66 -7 -110 -11 -44 -4 -91 -9 -105 -10 -14 -2 -59 -6 -100 -9 -41
-4 -91 -9 -110 -11 -19 -2 -69 -7 -110 -10 -41 -3 -86 -8 -100 -10 -14 -2 -54
-6 -90 -10 -104 -9 -211 -20 -290 -30 -19 -2 -64 -7 -100 -11 -36 -3 -72 -8
-81 -9 -9 -2 -52 -6 -95 -10 -43 -4 -86 -9 -94 -10 -8 -1 -44 -6 -80 -10 -36
-3 -76 -8 -90 -10 -14 -2 -50 -6 -80 -10 -30 -4 -66 -8 -80 -10 -14 -2 -50 -7
-80 -10 -30 -3 -66 -8 -80 -10 -14 -2 -79 -11 -145 -20 -66 -9 -133 -18 -150
-21 -16 -2 -50 -6 -75 -9 -25 -3 -52 -8 -60 -10 -8 -2 -37 -7 -65 -11 -27 -3
-59 -8 -70 -10 -11 -3 -36 -7 -55 -10 -159 -25 -404 -74 -579 -116 -7 -2 -61
-19 -120 -39 -126 -42 -188 -78 -206 -122 -12 -30 -38 -141 -51 -223 -3 -20
-8 -46 -10 -58 -2 -11 -11 -70 -19 -131 -8 -60 -16 -126 -19 -145 -6 -41 -14
-118 -22 -210 -3 -36 -7 -76 -9 -90 -30 -200 -49 -1435 -31 -2045 9 -290 21
-524 31 -615 2 -19 7 -74 10 -122 3 -48 8 -102 10 -120 2 -18 6 -62 10 -98 7
-75 9 -95 30 -267 8 -70 17 -139 20 -153 2 -14 6 -43 9 -65 10 -83 37 -261 41
-275 2 -8 6 -33 10 -55 5 -37 48 -270 59 -324 13 -61 40 -123 64 -148 30 -32
99 -66 187 -95 109 -35 409 -106 520 -123 11 -2 49 -8 85 -15 36 -7 79 -14 95
-17 17 -2 82 -13 145 -23 63 -11 138 -22 165 -25 28 -4 57 -8 65 -10 8 -2 40
-7 70 -10 30 -3 62 -8 70 -10 13 -3 82 -13 150 -20 41 -5 123 -15 155 -20 71
-11 84 -13 415 -51 25 -3 61 -7 80 -9 94 -12 129 -15 170 -19 25 -3 68 -7 95
-11 93 -11 120 -14 190 -21 98 -9 111 -10 185 -18 36 -4 88 -9 115 -12 28 -3
61 -7 75 -9 14 -2 59 -7 100 -10 41 -3 91 -7 110 -9 19 -3 67 -7 106 -11 40
-3 87 -7 105 -10 38 -4 124 -13 202 -20 107 -9 173 -16 217 -20 43 -5 81 -8
220 -20 36 -3 88 -7 115 -10 28 -3 76 -7 107 -10 94 -8 170 -15 223 -20 112
-10 164 -14 240 -20 44 -3 98 -8 120 -10 22 -2 76 -7 120 -10 44 -3 96 -8 115
-10 19 -3 71 -7 115 -10 44 -3 98 -7 120 -10 22 -2 76 -7 120 -10 44 -3 98 -8
120 -10 22 -2 81 -7 130 -10 50 -4 107 -8 127 -10 20 -2 72 -7 115 -10 43 -3
103 -8 133 -10 233 -20 300 -25 375 -30 39 -3 92 -7 120 -9 27 -3 93 -8 145
-12 52 -3 109 -8 125 -9 17 -2 73 -6 125 -9 52 -4 109 -9 125 -11 17 -2 75 -7
130 -10 55 -4 120 -8 145 -11 25 -2 79 -6 120 -9 41 -3 98 -7 125 -9 28 -3 95
-8 150 -11 55 -4 118 -9 140 -11 22 -1 81 -6 130 -9 50 -3 108 -8 130 -10 22
-2 85 -7 140 -10 55 -3 114 -8 130 -10 17 -3 82 -7 145 -10 63 -3 131 -7 150
-10 19 -3 80 -7 135 -10 188 -11 226 -14 236 -21 7 -4 9 -27 5 -63 -4 -31 -9
-76 -12 -101 -5 -48 -42 -329 -49 -370 -2 -14 -14 -95 -25 -180 -12 -85 -23
-166 -25 -180 -2 -14 -6 -45 -10 -70 -3 -25 -10 -74 -15 -110 -5 -36 -17 -119
-25 -185 -16 -119 -21 -156 -30 -205 -2 -14 -7 -45 -10 -70 -3 -25 -7 -54 -9
-65 -2 -11 -7 -49 -11 -85 -4 -36 -9 -74 -11 -85 -2 -10 -6 -35 -9 -55 -2 -19
-25 -177 -49 -350 -25 -173 -47 -331 -50 -350 -12 -103 -15 -108 -54 -107 -21
0 -82 -3 -137 -7 -124 -8 -226 -15 -330 -21 -44 -3 -109 -7 -145 -10 -36 -3
-105 -7 -155 -10 -49 -3 -117 -8 -150 -10 -95 -7 -225 -16 -285 -20 -30 -2
-102 -7 -160 -10 -58 -3 -121 -8 -140 -10 -19 -2 -82 -7 -140 -10 -133 -8
-196 -12 -296 -20 -76 -6 -110 -8 -289 -20 -44 -3 -107 -8 -140 -11 -33 -2
-96 -7 -140 -9 -44 -3 -100 -7 -125 -10 -25 -2 -83 -7 -130 -10 -100 -7 -181
-13 -267 -20 -35 -3 -91 -7 -125 -10 -178 -13 -281 -21 -393 -30 -70 -6 -140
-12 -245 -20 -41 -3 -91 -8 -110 -10 -19 -2 -73 -7 -120 -10 -47 -3 -96 -8
-110 -10 -14 -2 -68 -7 -120 -10 -52 -4 -104 -9 -114 -11 -10 -2 -62 -6 -114
-10 -52 -3 -102 -7 -112 -9 -9 -2 -52 -6 -96 -10 -43 -4 -92 -8 -109 -10 -128
-13 -166 -17 -205 -20 -25 -2 -63 -6 -85 -9 -22 -3 -71 -8 -110 -11 -38 -4
-81 -8 -95 -10 -14 -2 -50 -6 -80 -10 -76 -8 -229 -25 -265 -30 -16 -2 -66 -9
-111 -15 -44 -6 -100 -12 -124 -15 -51 -5 -103 -12 -190 -26 -36 -6 -78 -13
-95 -15 -459 -69 -723 -148 -741 -221 -10 -38 62 -152 292 -463 35 -47 67 -89
71 -95 5 -5 38 -48 73 -95 100 -133 378 -478 410 -510 3 -3 30 -34 60 -70 30
-36 57 -67 60 -70 3 -3 43 -48 90 -100 47 -52 108 -120 137 -150 28 -30 61
-66 73 -80 90 -106 619 -621 786 -767 12 -10 52 -46 90 -79 296 -263 645 -540
978 -775 61 -43 116 -83 122 -88 11 -9 405 -270 450 -298 10 -6 70 -43 133
-82 62 -39 117 -71 122 -71 5 0 9 -4 9 -10 0 -5 5 -10 10 -10 6 0 50 -24 98
-53 48 -30 119 -71 157 -93 39 -21 78 -43 87 -49 156 -91 666 -352 858 -439
321 -146 383 -169 453 -168 61 1 99 27 187 128 119 138 267 516 405 1035 53
198 54 199 66 257 5 24 11 47 13 51 4 6 44 174 62 256 5 25 14 67 18 80 1 6
11 46 21 90 10 44 24 104 32 133 l15 53 86 -5 c48 -3 125 -8 172 -11 47 -3
114 -7 150 -10 36 -2 106 -7 155 -10 50 -3 117 -8 150 -10 33 -3 101 -7 150
-10 50 -3 119 -8 155 -10 36 -3 108 -7 160 -11 52 -3 122 -7 155 -9 33 -3 96
-7 140 -10 44 -3 109 -7 145 -10 61 -4 126 -8 330 -20 47 -3 110 -7 140 -10
30 -2 105 -7 165 -10 61 -4 135 -8 165 -10 30 -2 100 -7 155 -10 55 -3 118 -8
140 -10 22 -1 97 -6 167 -10 69 -3 146 -8 170 -10 24 -2 95 -6 158 -10 63 -3
135 -8 160 -10 25 -2 98 -7 163 -10 64 -4 136 -8 160 -10 23 -2 92 -6 152 -10
156 -10 186 -12 315 -19 63 -4 135 -9 160 -11 25 -2 97 -7 160 -10 63 -4 138
-8 165 -10 28 -2 95 -6 150 -10 55 -3 129 -8 165 -10 36 -3 103 -7 150 -10 47
-3 117 -7 155 -10 39 -2 108 -7 155 -10 47 -3 114 -7 150 -10 36 -2 115 -7
175 -11 61 -4 126 -8 145 -9 19 -1 89 -5 155 -9 66 -4 136 -9 155 -11 19 -2
89 -6 155 -10 66 -3 140 -8 165 -10 25 -2 90 -6 145 -10 55 -3 123 -8 150 -10
28 -3 95 -7 150 -10 55 -3 123 -8 150 -10 28 -2 93 -7 145 -10 52 -3 124 -8
160 -10 36 -3 101 -7 145 -10 44 -3 103 -7 130 -10 59 -4 256 -17 304 -19 39
-2 44 -9 70 -106 59 -223 215 -725 242 -780 4 -8 29 -67 55 -130 117 -285 209
-429 328 -518 46 -34 55 -36 115 -36 76 2 115 15 366 129 344 156 664 322
1135 588 100 56 402 241 525 322 164 107 214 149 210 173 -2 9 -4 23 -4 30 -2
26 -177 85 -311 106 -19 3 -73 12 -120 20 -84 14 -193 30 -280 41 -25 3 -61 8
-80 10 -19 3 -55 8 -80 10 -25 3 -61 7 -80 10 -19 2 -64 7 -100 10 -36 3 -76
8 -90 10 -24 4 -62 8 -197 20 -32 3 -78 8 -103 10 -79 9 -133 14 -210 20 -41
3 -86 8 -100 10 -14 2 -65 6 -115 10 -49 3 -101 8 -115 10 -14 3 -63 7 -110
10 -47 3 -110 7 -140 10 -30 3 -86 7 -125 10 -38 3 -92 7 -120 10 -27 3 -88 7
-135 11 -47 3 -105 7 -130 9 -25 2 -83 7 -130 10 -47 4 -86 7 -86 8 -14 19
-244 1051 -323 1452 -11 55 -23 112 -26 128 -3 15 -7 39 -10 55 -3 15 -10 47
-15 72 -5 25 -12 59 -15 75 -3 17 -12 69 -20 117 -9 48 -18 106 -21 130 -3 24
-7 48 -9 54 -11 35 12 39 340 59 50 3 115 7 145 10 68 5 274 19 430 30 47 3
110 8 140 10 30 2 93 7 140 10 123 9 196 14 270 20 36 2 101 7 145 10 44 3
107 8 140 10 64 5 135 10 280 20 50 3 108 8 130 10 22 2 83 7 135 11 52 3 111
7 130 9 19 2 73 6 120 10 79 5 147 11 245 20 22 2 81 6 130 10 50 3 101 7 115
10 14 2 66 6 116 9 50 4 111 8 135 11 86 8 155 15 224 20 39 4 88 8 110 10 22
2 81 6 130 10 50 4 97 9 106 10 9 2 52 6 95 10 43 4 90 8 104 10 14 2 63 7
110 10 47 4 92 8 100 10 8 2 49 6 90 10 41 3 91 8 110 10 19 2 67 7 105 10 39
4 81 8 95 10 14 2 52 7 85 10 33 3 76 8 95 10 19 2 60 7 90 10 30 3 89 10 131
16 42 5 98 12 125 15 27 2 60 6 74 9 14 2 52 7 85 10 33 4 67 8 75 10 8 2 35
7 60 10 43 5 96 12 150 20 14 2 45 6 70 10 25 3 56 8 70 10 14 3 41 7 60 10
19 3 46 7 60 10 14 3 41 7 60 10 227 36 505 106 596 150 92 45 124 85 328 415
138 223 186 302 241 400 14 25 35 61 46 80 85 141 371 699 469 915 92 201 136
301 167 375 19 47 43 103 53 125 42 92 246 623 255 665 2 8 24 76 50 150 97
284 246 801 280 970 2 8 8 35 15 60 7 25 14 56 17 70 2 14 8 41 13 60 11 43
14 55 42 202 l22 117 -24 27 c-14 14 -46 37 -73 50 -49 25 -212 83 -257 91
-14 2 -38 8 -55 13 -59 18 -320 71 -460 94 -16 3 -70 12 -120 20 -83 14 -149
24 -200 31 -84 12 -246 35 -275 40 -55 8 -499 64 -560 70 -30 3 -93 10 -140
16 -47 5 -105 12 -130 15 -25 2 -58 7 -75 9 -16 2 -61 7 -100 10 -38 4 -82 8
-96 11 -14 2 -52 6 -85 9 -32 3 -75 8 -94 10 -19 2 -66 7 -105 10 -38 4 -80 8
-93 10 -13 2 -53 7 -90 10 -37 3 -85 8 -107 10 -22 3 -67 7 -100 10 -33 3 -78
7 -100 10 -42 4 -120 12 -195 19 -25 3 -76 8 -115 11 -38 3 -88 8 -110 10 -22
2 -71 7 -110 11 -38 3 -86 8 -105 10 -19 2 -69 6 -110 9 -41 3 -88 8 -105 10
-16 2 -73 7 -125 10 -52 4 -102 9 -111 10 -8 2 -55 6 -105 9 -49 4 -105 9
-124 12 -19 2 -66 6 -105 9 -38 3 -92 7 -120 10 -27 3 -81 7 -120 10 -38 3
-88 7 -110 10 -36 4 -97 9 -235 20 -63 4 -197 16 -249 20 -73 7 -183 16 -366
30 -38 3 -92 7 -120 10 -27 2 -86 7 -130 10 -44 3 -102 8 -130 10 -27 3 -81 7
-120 10 -38 3 -92 7 -120 10 -27 2 -86 7 -130 10 -84 6 -175 13 -260 20 -27 2
-86 7 -130 10 -44 3 -102 8 -130 10 -48 4 -123 10 -270 20 -38 3 -95 7 -125
10 -30 2 -95 7 -145 10 -49 4 -108 8 -131 10 -22 2 -78 6 -125 9 -46 4 -109 9
-139 11 -30 3 -89 7 -130 10 -41 3 -97 7 -125 10 -27 2 -90 7 -140 10 -49 3
-112 7 -140 10 -27 2 -97 7 -155 11 -58 3 -121 7 -140 9 -19 2 -78 7 -130 10
-52 4 -111 9 -130 11 -19 1 -91 6 -160 9 -69 4 -128 9 -131 11 -4 2 -10 24
-14 50 -3 25 -8 53 -9 62 -2 10 -7 44 -11 77 -4 32 -8 66 -10 75 -10 57 -18
116 -17 122 1 4 -2 29 -7 55 -5 26 -12 73 -16 103 -7 62 -9 77 -24 175 -6 39
-13 90 -16 115 -3 25 -7 54 -9 65 -2 11 -7 45 -11 75 -4 30 -9 62 -10 70 -1 8
-6 40 -10 70 -3 30 -8 66 -10 80 -8 50 -26 176 -30 215 -3 22 -7 51 -10 65 -3
14 -7 48 -10 75 -3 28 -10 75 -15 105 -5 30 -12 78 -15 105 -3 28 -8 59 -10
70 -3 11 -7 38 -9 60 -13 109 -18 144 -26 190 -5 28 -12 77 -15 110 -4 32 -8
66 -10 75 -1 8 -6 38 -9 65 -4 28 -9 65 -12 83 -2 17 -6 47 -8 65 -22 159 -27
196 -31 215 -2 11 -7 55 -10 96 l-7 76 44 1 c23 0 50 2 59 4 9 1 65 6 125 9
60 4 134 9 164 11 30 2 89 7 130 10 41 3 104 7 140 10 101 7 207 14 305 20 50
3 119 7 155 10 36 2 101 7 145 10 91 7 174 12 290 20 135 8 228 15 285 20 30
2 93 7 140 10 100 6 201 13 285 20 33 2 101 7 150 10 50 4 110 8 135 10 25 2
95 7 155 11 184 12 308 21 415 30 30 2 89 6 130 9 41 2 107 7 145 10 119 9
197 15 275 20 41 3 98 7 125 10 47 4 92 7 275 20 41 3 100 8 130 10 30 3 89 7
130 10 41 3 100 7 130 10 30 2 89 7 130 10 134 10 270 21 370 30 30 3 89 7
130 10 41 3 95 8 120 10 25 2 83 6 130 10 47 3 101 8 120 10 19 2 73 7 120 10
47 4 101 8 120 10 19 2 73 7 120 10 47 4 99 8 115 10 17 1 66 6 110 10 44 3
100 8 124 10 24 3 75 7 115 10 68 5 117 10 216 20 62 6 159 15 320 29 70 7
148 14 220 21 25 3 72 7 105 10 33 3 76 7 95 10 19 2 62 7 95 10 98 9 158 15
200 20 52 6 217 24 275 30 25 2 63 6 85 9 22 3 69 8 105 11 36 4 73 9 82 10 9
2 45 6 80 10 35 3 77 8 93 10 17 3 86 12 155 20 163 21 204 26 295 40 11 2 43
6 70 10 99 12 524 85 616 106 52 11 108 23 124 26 55 9 258 74 309 98 28 14
64 35 80 48 25 20 29 30 28 73 -2 68 -39 245 -112 529 -34 132 -66 254 -70
270 -5 17 -16 57 -25 90 -64 233 -265 852 -305 940 -5 11 -23 58 -40 105 -17
47 -35 94 -40 105 -5 11 -19 45 -30 75 -11 30 -25 65 -30 78 -21 47 -31 71
-90 212 -34 80 -89 206 -123 280 -67 149 -348 715 -382 770 -12 19 -38 64 -57
100 -66 120 -91 165 -130 229 -21 34 -38 65 -38 66 0 9 -279 455 -367 587 -81
121 -186 172 -488 237 -55 12 -107 24 -115 25 -8 2 -58 11 -110 20 -52 9 -104
18 -115 20 -11 2 -40 7 -65 11 -25 4 -52 9 -60 10 -8 1 -40 6 -70 10 -30 4
-64 9 -75 11 -34 7 -68 12 -125 19 -30 4 -64 9 -75 11 -11 2 -45 6 -75 9 -30
4 -62 8 -70 10 -8 3 -40 7 -70 10 -53 5 -106 12 -160 20 -34 5 -308 37 -345
40 -17 1 -48 5 -70 8 -22 4 -65 9 -95 12 -30 3 -71 8 -90 10 -19 2 -62 7 -95
10 -121 11 -161 15 -195 20 -19 2 -62 7 -95 10 -33 3 -78 8 -100 10 -22 2 -69
7 -105 10 -36 4 -76 8 -90 10 -14 2 -61 7 -105 10 -142 12 -252 22 -315 30
-19 2 -72 7 -117 10 -46 3 -91 8 -100 9 -10 2 -61 7 -113 11 -52 4 -101 8
-110 10 -8 1 -60 6 -115 10 -55 4 -113 8 -130 10 -47 6 -132 14 -220 20 -106
9 -171 14 -225 20 -25 2 -81 7 -125 10 -44 3 -96 7 -115 10 -19 2 -75 7 -125
10 -49 4 -108 8 -130 10 -22 2 -78 6 -125 10 -47 4 -101 8 -120 10 -19 2 -75
6 -125 10 -49 4 -106 8 -125 10 -19 2 -78 6 -130 10 -52 3 -117 8 -145 10 -99
9 -162 14 -255 20 -52 3 -113 8 -135 10 -22 3 -80 8 -130 11 -49 3 -108 7
-130 9 -22 1 -87 6 -145 9 -58 4 -115 9 -128 11 -12 2 -68 7 -125 10 -56 4
-122 8 -147 10 -87 7 -206 15 -275 20 -38 2 -95 7 -125 9 -30 3 -100 8 -155
12 -55 4 -116 8 -135 9 -19 2 -80 6 -135 10 -55 4 -116 8 -135 10 -19 2 -78 6
-130 9 -52 4 -120 8 -150 11 -57 4 -145 11 -285 20 -44 3 -102 8 -130 10 -27
2 -86 7 -130 10 -44 3 -100 8 -125 10 -25 3 -81 7 -125 11 -44 3 -83 11 -87
17 -6 9 -20 80 -43 212 -2 17 -7 39 -9 50 -2 11 -7 40 -12 65 -4 25 -8 47 -9
50 -1 3 -5 25 -9 50 -5 25 -10 54 -12 65 -2 11 -16 85 -30 165 -15 80 -30 163
-34 185 -4 22 -17 90 -28 150 -27 141 -55 292 -82 430 -12 61 -24 124 -26 140
-3 17 -9 46 -14 65 -10 38 -21 96 -24 119 -2 25 80 34 479 56 55 2 129 7 165
10 76 5 212 14 325 20 44 3 116 7 160 10 44 3 121 7 170 10 173 11 231 15 315
21 47 3 117 7 155 9 39 2 108 6 155 9 96 7 199 14 310 21 41 3 109 7 150 10
41 3 113 8 160 10 47 3 110 8 140 10 30 2 98 7 150 10 52 4 118 9 145 11 28 1
88 6 135 9 47 3 112 7 145 10 33 3 94 7 135 10 182 14 208 16 260 20 30 3 91
7 135 11 44 3 103 7 130 10 28 2 82 6 120 9 80 5 169 13 235 20 25 2 72 7 105
10 72 6 187 16 235 20 19 2 69 6 110 10 41 4 89 9 105 11 17 2 80 8 140 14 61
6 121 12 135 15 14 2 50 7 80 10 94 10 143 16 240 30 14 2 45 7 70 10 107 14
323 57 386 76 64 20 124 63 124 89 0 19 -50 59 -196 156 -220 145 -494 311
-759 460 -127 71 -732 378 -851 431 -27 12 -80 36 -119 53 -38 17 -90 40 -114
51 -24 11 -65 29 -91 39 -26 10 -67 28 -91 38 -135 61 -515 206 -779 296 -305
105 -706 222 -1045 305 -93 23 -188 46 -210 52 -22 5 -49 11 -60 14 -11 2 -72
15 -135 29 -63 14 -162 35 -220 47 -58 12 -109 22 -115 24 -5 1 -28 5 -50 9
-22 5 -85 17 -140 28 -55 11 -111 22 -125 24 -14 3 -72 13 -130 24 -58 11
-118 22 -135 25 -16 2 -41 7 -55 10 -31 6 -208 36 -235 40 -11 2 -42 6 -70 10
-27 3 -57 8 -65 10 -8 2 -40 7 -70 10 -30 3 -82 10 -115 15 -33 5 -89 12 -125
15 -36 3 -76 8 -90 10 -14 2 -65 7 -115 10 -49 3 -110 8 -135 11 -51 6 -945
15 -951 10z m431 -156 c151 -107 318 -464 502 -1070 27 -91 51 -172 53 -180 4
-19 40 -154 66 -248 11 -40 22 -81 24 -90 2 -9 20 -82 39 -162 20 -80 38 -154
41 -165 2 -11 35 -159 73 -330 83 -372 83 -373 74 -379 -4 -2 -50 -7 -102 -11
-52 -3 -117 -8 -145 -10 -27 -3 -90 -7 -140 -10 -49 -3 -121 -7 -160 -9 -38
-3 -119 -8 -178 -11 -60 -3 -130 -8 -155 -10 -26 -2 -103 -6 -172 -10 -69 -3
-143 -8 -165 -10 -41 -3 -257 -15 -355 -20 -30 -2 -120 -6 -200 -10 -80 -4
-167 -8 -193 -10 l-48 -2 6 36 c5 34 7 47 21 111 2 14 9 50 15 80 6 30 17 80
24 110 8 30 17 70 20 89 3 19 24 111 46 205 22 94 41 180 43 191 3 16 34 140
70 285 227 906 477 1510 678 1636 72 46 157 47 218 4z m-1224 -2822 c5 -5 -11
-94 -71 -408 -14 -69 -27 -141 -30 -160 -3 -19 -10 -53 -15 -75 -5 -22 -14
-69 -19 -105 -6 -36 -13 -76 -16 -90 -3 -14 -18 -101 -35 -195 -16 -93 -32
-179 -34 -190 -2 -11 -7 -40 -12 -65 -4 -25 -8 -47 -9 -50 -1 -3 -5 -29 -9
-58 l-8 -54 -117 7 c-143 8 -207 12 -446 30 -27 2 -90 6 -140 10 -49 3 -106 8
-125 10 -19 1 -84 6 -145 9 -60 4 -132 9 -160 11 -189 15 -211 17 -390 29 -44
3 -107 8 -140 11 -96 8 -238 18 -410 30 -44 3 -93 8 -110 10 -16 2 -73 7 -125
10 -52 3 -113 7 -135 9 -22 2 -83 7 -135 10 -52 4 -115 9 -140 11 -45 5 -122
11 -255 20 -38 3 -95 7 -125 10 -30 2 -83 7 -117 10 -35 3 -89 7 -120 10 -32
3 -92 7 -133 10 -41 3 -95 8 -120 10 -53 5 -148 13 -245 20 -38 3 -90 8 -115
10 -56 6 -123 12 -220 20 -41 3 -91 8 -110 10 -19 2 -71 7 -115 10 -44 4 -91
8 -105 10 -14 2 -59 7 -100 10 -41 3 -96 8 -122 10 -27 3 -72 7 -100 10 -29 3
-71 7 -93 10 -22 2 -78 7 -125 10 -47 4 -93 9 -103 11 -10 2 -48 6 -85 9 -37
4 -78 8 -92 10 -14 2 -59 6 -100 10 -41 4 -86 8 -100 10 -27 4 -91 11 -180 20
-30 3 -66 8 -80 10 -14 2 -52 6 -85 10 -33 3 -73 8 -90 10 -16 3 -52 7 -80 10
-27 3 -63 8 -80 10 -16 3 -48 7 -70 9 -22 2 -78 9 -125 16 -85 11 -94 12 -180
25 -25 4 -56 8 -70 10 -204 29 -487 85 -580 115 -112 36 -149 73 -97 97 55 26
182 65 247 77 14 2 36 7 50 10 14 3 39 8 55 11 17 3 84 14 150 25 150 26 157
27 230 35 33 3 67 8 75 10 8 2 38 6 65 10 28 3 66 7 85 10 19 2 58 7 85 10 28
3 61 8 75 10 14 2 55 6 92 10 37 3 75 7 85 9 10 2 56 7 103 11 47 3 92 8 100
10 8 2 53 7 100 10 47 3 96 8 110 10 14 2 52 7 85 9 74 7 190 17 230 22 17 1
66 6 110 9 44 4 96 8 115 10 19 2 71 6 115 10 44 3 96 8 115 10 19 2 76 6 125
10 50 3 110 8 135 10 25 2 79 7 120 10 41 3 100 8 130 10 30 3 87 7 125 10 39
3 102 7 140 10 89 7 183 14 265 20 36 3 99 8 140 10 41 2 104 7 140 10 36 3
101 7 145 10 44 3 103 7 130 9 28 3 97 7 155 11 58 3 132 8 165 10 100 7 215
15 300 20 44 3 109 8 145 10 36 3 103 7 150 10 47 3 119 7 160 10 41 3 113 8
160 10 110 7 215 14 315 20 44 3 116 8 160 10 44 3 121 7 170 10 50 3 122 8
160 10 39 3 106 7 150 10 44 3 121 7 170 10 50 3 124 7 165 10 86 7 148 10
310 20 63 3 140 8 170 10 30 3 113 7 185 10 71 3 130 7 131 8 5 5 94 0 100 -5z
m-75 -1523 c57 -3 124 -8 149 -10 25 -2 95 -7 155 -10 61 -4 121 -8 135 -10
14 -2 75 -7 135 -10 61 -4 130 -8 155 -10 25 -3 90 -7 145 -10 55 -4 118 -8
140 -10 22 -2 85 -6 140 -10 55 -3 118 -8 140 -10 22 -2 78 -7 125 -10 152
-10 224 -15 280 -20 30 -3 98 -7 150 -10 52 -4 115 -8 140 -10 25 -2 83 -6
130 -10 47 -3 105 -8 130 -10 25 -2 92 -7 149 -10 118 -8 129 -9 135 -16 3 -2
10 -34 15 -69 6 -36 13 -74 15 -85 5 -28 17 -101 21 -128 1 -12 5 -35 8 -52 6
-32 18 -107 23 -140 2 -11 8 -47 13 -80 6 -33 14 -80 17 -105 3 -25 7 -52 9
-60 3 -8 7 -33 10 -55 4 -22 21 -132 40 -245 32 -199 59 -365 71 -444 3 -21 7
-48 10 -59 9 -46 54 -355 58 -393 5 -62 0 -66 -85 -60 -41 3 -112 8 -159 11
-47 3 -112 7 -145 10 -33 2 -100 7 -150 10 -49 3 -119 8 -155 11 -36 3 -99 7
-140 9 -41 2 -106 7 -145 10 -38 2 -110 7 -160 11 -49 3 -110 7 -135 9 -25 2
-94 7 -155 10 -60 4 -126 9 -145 10 -19 2 -82 7 -140 10 -58 4 -127 9 -155 10
-27 2 -95 7 -150 10 -55 3 -127 8 -160 10 -116 8 -351 25 -435 30 -133 9 -248
17 -280 20 -19 2 -80 7 -135 11 -55 4 -113 8 -130 10 -16 1 -46 3 -65 3 -19 1
-40 5 -46 9 -10 7 -6 86 10 177 5 30 11 74 21 158 3 23 8 53 11 67 2 14 7 43
9 64 5 40 8 55 25 156 5 30 12 77 15 103 3 27 12 87 20 135 8 48 17 103 19
122 3 19 15 91 26 160 11 69 23 141 26 160 23 156 77 480 90 545 16 78 29 109
43 101 4 -3 54 -8 112 -11z m3269 -2250 c19 -2 89 -6 155 -10 66 -4 137 -8
157 -10 21 -2 81 -7 135 -10 103 -7 122 -8 293 -20 58 -4 123 -9 145 -10 59
-4 232 -16 290 -20 50 -4 185 -13 280 -20 28 -2 91 -6 140 -9 50 -4 117 -9
150 -11 105 -8 208 -16 275 -20 77 -4 201 -13 285 -20 71 -6 172 -13 275 -20
41 -3 102 -7 135 -10 33 -3 96 -7 140 -10 44 -3 105 -7 135 -10 30 -2 89 -7
130 -10 41 -3 100 -8 130 -10 30 -3 96 -7 145 -10 50 -3 108 -7 130 -10 22 -2
85 -7 140 -11 55 -3 114 -7 130 -9 17 -2 75 -6 130 -10 55 -4 118 -8 140 -11
22 -2 72 -6 112 -8 39 -3 96 -7 125 -10 29 -3 87 -8 128 -11 95 -6 214 -15
265 -20 22 -2 76 -6 120 -10 180 -14 248 -20 370 -31 68 -6 103 -9 225 -19 47
-3 101 -8 120 -10 19 -1 71 -6 115 -10 44 -3 98 -8 120 -10 22 -2 72 -7 110
-10 39 -3 90 -8 115 -11 25 -3 78 -7 119 -9 40 -3 85 -7 100 -9 14 -3 58 -7
96 -11 152 -12 191 -16 225 -20 19 -3 63 -7 96 -10 34 -3 79 -7 100 -9 22 -3
68 -7 104 -11 62 -5 108 -10 195 -19 22 -3 69 -8 105 -11 36 -3 72 -8 80 -10
8 -2 53 -7 100 -10 47 -4 87 -8 90 -10 3 -2 43 -6 90 -10 47 -4 88 -9 91 -11
3 -1 34 -5 70 -8 35 -4 80 -8 99 -11 19 -2 55 -7 79 -10 23 -3 55 -7 70 -10
14 -2 49 -6 76 -9 28 -3 82 -10 120 -15 39 -6 93 -13 120 -16 28 -3 61 -8 75
-11 14 -2 43 -7 65 -9 22 -3 69 -10 105 -16 36 -6 76 -12 90 -14 367 -51 785
-154 869 -215 26 -18 29 -24 20 -42 -21 -39 -185 -96 -424 -147 -141 -30 -184
-38 -355 -66 -19 -3 -46 -7 -60 -10 -14 -3 -43 -7 -65 -10 -22 -2 -49 -7 -60
-9 -24 -5 -92 -14 -160 -21 -27 -3 -61 -7 -75 -10 -14 -2 -44 -7 -67 -10 -24
-3 -62 -7 -85 -10 -54 -7 -85 -11 -233 -29 -66 -8 -147 -18 -180 -21 -33 -3
-76 -8 -95 -10 -19 -2 -60 -7 -90 -10 -30 -3 -73 -7 -95 -10 -90 -10 -231 -25
-385 -40 -36 -3 -81 -8 -100 -10 -19 -2 -66 -7 -105 -10 -79 -7 -138 -12 -210
-20 -78 -8 -157 -15 -350 -31 -44 -3 -87 -8 -95 -9 -8 -1 -60 -6 -115 -11 -55
-4 -107 -8 -115 -9 -8 -1 -55 -4 -105 -8 -49 -4 -110 -10 -135 -12 -50 -5
-140 -12 -245 -20 -38 -4 -90 -8 -115 -10 -52 -5 -184 -15 -250 -20 -120 -8
-219 -16 -260 -20 -55 -6 -135 -12 -255 -20 -49 -4 -110 -8 -135 -10 -25 -2
-81 -7 -125 -10 -44 -3 -105 -7 -135 -10 -103 -9 -233 -18 -415 -29 -55 -4
-116 -9 -135 -11 -19 -2 -82 -7 -140 -11 -58 -4 -121 -8 -140 -9 -19 -1 -82
-5 -140 -9 -58 -4 -125 -9 -150 -11 -25 -3 -83 -7 -130 -10 -123 -8 -228 -15
-285 -20 -27 -2 -90 -6 -140 -10 -206 -13 -317 -20 -445 -30 -30 -2 -98 -7
-150 -10 -342 -22 -393 -25 -455 -30 -33 -2 -105 -7 -160 -10 -55 -4 -125 -8
-155 -10 -30 -3 -95 -7 -145 -10 -49 -3 -117 -8 -150 -10 -33 -2 -105 -7 -160
-10 -55 -3 -127 -8 -160 -10 -33 -3 -100 -7 -150 -10 -49 -3 -108 -7 -130 -10
-22 -2 -89 -7 -150 -11 -60 -3 -113 -8 -117 -10 -11 -7 -18 11 -23 57 -3 24
-7 55 -10 69 -3 14 -7 45 -10 69 -3 23 -7 55 -9 70 -3 14 -8 46 -11 71 -3 25
-10 70 -15 100 -6 30 -12 78 -15 105 -3 28 -7 59 -10 71 -5 21 -21 134 -31
209 -3 22 -9 65 -14 95 -5 30 -12 75 -15 100 -6 41 -20 135 -30 200 -2 14 -7
45 -10 70 -3 25 -8 52 -10 60 -2 8 -6 38 -10 65 -3 28 -8 61 -10 75 -3 14 -7
41 -9 60 -3 19 -14 97 -26 173 -11 77 -23 161 -26 189 l-6 50 153 -7 c85 -4
170 -8 189 -10z m-104 -2018 c8 -24 10 -30 19 -97 15 -104 72 -509 86 -610 6
-47 13 -94 15 -105 1 -11 5 -41 9 -66 3 -26 7 -55 9 -66 2 -10 7 -46 11 -78 4
-33 9 -67 10 -75 4 -24 24 -161 30 -210 3 -25 8 -56 10 -70 2 -14 7 -43 10
-65 3 -22 7 -51 10 -65 2 -14 7 -47 10 -75 5 -45 14 -111 30 -217 3 -21 7 -54
10 -73 3 -19 7 -51 10 -70 3 -19 7 -52 10 -72 3 -21 10 -69 16 -108 16 -114
23 -178 24 -214 0 -39 7 -37 -142 -46 -58 -3 -119 -8 -136 -10 -18 -2 -77 -6
-132 -10 -55 -3 -125 -8 -155 -10 -30 -2 -98 -6 -150 -10 -52 -3 -120 -8 -150
-10 -30 -2 -93 -7 -140 -10 -47 -3 -118 -7 -157 -10 -40 -3 -108 -7 -150 -10
-43 -3 -107 -7 -143 -10 -36 -3 -103 -7 -150 -10 -47 -3 -110 -7 -140 -10 -30
-2 -104 -7 -165 -10 -60 -3 -130 -8 -155 -10 -25 -3 -88 -7 -140 -10 -118 -8
-204 -13 -295 -20 -38 -2 -110 -7 -160 -10 -49 -3 -117 -8 -150 -10 -33 -2
-103 -7 -155 -10 -52 -3 -124 -7 -160 -10 -159 -11 -357 -24 -455 -30 -44 -3
-111 -7 -150 -10 -67 -5 -136 -9 -305 -20 -41 -3 -106 -7 -145 -10 -88 -6
-222 -14 -342 -20 -92 -5 -99 -3 -94 27 0 4 3 31 6 60 3 29 10 89 16 133 6 44
12 94 14 110 2 17 7 53 10 80 4 28 9 66 11 85 9 76 55 427 59 450 2 14 7 47 9
74 3 26 8 65 10 85 3 20 8 56 11 81 3 25 8 56 10 70 4 28 6 37 35 265 12 88
23 171 25 185 2 14 6 45 10 70 3 25 10 77 15 115 6 39 12 87 15 109 5 43 13
101 21 161 3 22 7 51 9 65 18 135 30 202 35 205 11 7 136 17 350 30 47 3 112
7 145 10 33 2 101 7 150 10 50 3 115 7 145 10 30 2 105 7 165 10 61 4 126 8
145 10 19 2 89 6 155 10 66 3 138 8 160 10 22 2 92 7 155 10 63 4 131 8 150
10 19 2 85 6 145 10 61 3 133 7 160 10 28 2 100 6 160 9 61 4 133 9 160 11 28
3 95 7 150 10 55 3 129 7 165 10 36 2 99 7 140 9 220 14 280 18 335 22 33 2
98 6 145 9 177 11 237 14 305 19 39 3 111 8 160 12 50 3 91 7 92 7 1 1 28 3
62 4 54 3 60 1 67 -20z m-4369 -2810 c-4 -39 -9 -81 -11 -92 -2 -11 -7 -47
-10 -80 -4 -33 -11 -87 -16 -120 -5 -33 -12 -85 -15 -115 -3 -30 -8 -66 -10
-80 -2 -14 -6 -47 -10 -75 -3 -27 -8 -61 -10 -75 -4 -22 -19 -142 -31 -240 -2
-19 -9 -66 -14 -105 -5 -38 -12 -92 -15 -120 -3 -27 -8 -61 -10 -75 -3 -14 -7
-47 -10 -75 -5 -45 -9 -79 -20 -155 -2 -14 -6 -45 -9 -70 -3 -25 -8 -54 -10
-65 -2 -11 -7 -47 -10 -80 -4 -33 -9 -71 -11 -85 -2 -14 -11 -79 -20 -145 -18
-137 -23 -169 -31 -208 l-6 -29 -97 6 c-100 7 -201 14 -286 21 -27 2 -95 7
-150 10 -55 3 -120 8 -145 10 -108 10 -171 15 -255 20 -49 3 -115 7 -145 10
-30 3 -89 7 -131 10 -42 3 -101 7 -130 10 -62 5 -148 12 -269 20 -47 4 -106 8
-132 10 -26 3 -83 7 -125 10 -43 3 -107 7 -143 10 -60 5 -98 7 -255 20 -33 2
-91 7 -130 10 -38 3 -92 7 -120 10 -27 2 -90 7 -140 10 -49 3 -108 8 -130 10
-38 4 -79 8 -255 20 -41 3 -97 8 -125 10 -27 3 -81 7 -120 10 -38 3 -90 7
-115 10 -25 2 -85 7 -135 11 -49 4 -101 8 -115 9 -14 2 -67 6 -118 9 -51 4
-109 9 -130 11 -20 2 -75 6 -122 10 -47 3 -103 8 -125 11 -22 2 -71 7 -109 9
-38 3 -89 7 -115 9 -25 3 -82 8 -126 11 -44 3 -91 8 -105 10 -14 2 -69 6 -122
10 -54 3 -106 8 -116 10 -10 2 -56 6 -100 9 -45 4 -101 8 -125 11 -23 2 -73 7
-112 10 -38 3 -88 8 -110 10 -22 2 -76 7 -120 11 -44 3 -93 8 -110 9 -16 2
-66 6 -109 10 -44 4 -87 8 -95 10 -9 1 -52 6 -96 9 -85 7 -151 13 -227 21 -27
3 -72 7 -100 10 -29 3 -73 7 -98 10 -25 3 -69 7 -97 10 -29 3 -74 7 -100 10
-27 3 -72 7 -100 10 -260 25 -342 33 -393 40 -19 2 -57 7 -85 10 -27 3 -93 10
-145 16 -52 5 -115 12 -140 15 -60 6 -299 34 -330 39 -14 2 -50 6 -80 9 -30 4
-66 8 -80 10 -14 3 -50 7 -80 10 -30 4 -64 8 -75 10 -11 2 -46 7 -79 11 -32 3
-68 8 -80 10 -11 3 -75 11 -141 20 -66 8 -145 19 -175 25 -30 5 -72 11 -92 14
-95 14 -122 19 -258 42 -80 13 -188 33 -240 43 -52 11 -108 22 -125 25 -62 13
-83 18 -212 51 -229 60 -343 112 -343 158 0 23 17 37 91 73 66 32 266 92 434
130 64 14 385 71 450 80 28 3 52 8 55 9 3 2 33 7 65 10 33 4 69 9 80 11 10 2
37 6 60 9 22 4 51 8 65 10 35 5 98 14 145 19 22 3 72 10 110 15 39 5 95 12
125 16 53 6 87 10 175 21 22 2 56 7 75 9 19 2 71 9 115 14 44 6 109 13 145 16
36 4 76 8 90 10 14 2 54 7 90 10 36 4 79 8 95 10 17 2 57 6 90 10 33 3 78 8
100 10 22 2 65 7 95 10 30 3 75 8 100 10 61 7 144 15 210 21 30 2 71 6 90 8
19 3 69 7 110 10 41 4 91 8 110 11 19 2 69 7 110 10 41 4 89 8 105 10 17 2 66
7 110 10 44 3 87 8 95 10 8 2 61 6 118 10 57 4 112 8 121 10 10 2 58 6 107 10
49 3 105 7 124 9 19 2 69 7 110 11 41 3 91 8 110 9 19 2 76 7 125 11 50 3 106
8 125 10 33 3 119 10 260 21 63 4 111 9 223 19 28 2 84 7 122 9 101 7 234 17
275 21 19 2 78 7 130 10 52 4 106 8 120 10 14 2 72 7 130 10 58 4 121 8 140
10 19 2 73 6 120 10 47 3 110 8 140 10 30 3 91 7 135 10 44 3 107 8 140 11 33
2 89 6 125 9 36 2 97 7 135 10 39 3 106 8 150 11 44 3 100 7 125 9 25 2 95 7
155 10 61 3 121 8 135 10 14 2 72 7 130 10 58 4 122 8 142 10 21 2 84 7 140
10 57 3 126 7 153 10 28 2 88 6 135 10 47 3 114 8 150 10 36 3 103 7 150 10
108 7 210 14 280 20 30 2 96 7 145 10 50 3 119 8 155 10 36 3 101 7 145 10
156 11 348 25 405 30 25 2 95 7 155 10 61 4 111 7 112 8 1 1 20 3 44 4 l42 3
-6 -73z m-67 -2162 c52 -3 115 -8 140 -10 42 -4 137 -10 285 -20 33 -2 94 -6
135 -9 142 -11 205 -16 295 -21 50 -3 110 -7 135 -10 25 -2 88 -7 140 -10 52
-3 115 -8 140 -10 25 -2 88 -7 140 -10 52 -3 115 -8 140 -10 25 -3 83 -7 130
-10 47 -3 112 -7 145 -10 33 -2 101 -7 150 -10 89 -6 112 -8 270 -20 140 -11
170 -13 286 -20 63 -4 130 -9 149 -10 19 -2 78 -6 130 -10 52 -3 115 -8 140
-10 25 -2 90 -7 145 -10 55 -4 120 -8 145 -10 73 -6 180 -14 265 -20 115 -7
220 -15 300 -22 84 -7 108 -8 250 -17 61 -4 133 -9 160 -11 52 -4 167 -13 270
-20 33 -3 89 -7 125 -10 89 -7 226 -17 280 -20 187 -12 267 -18 280 -21 8 -1
18 -3 21 -3 3 -1 6 -7 6 -13 0 -19 13 -122 18 -149 3 -13 7 -44 10 -69 3 -25
7 -56 10 -70 2 -14 9 -61 15 -105 6 -44 15 -107 20 -140 5 -33 12 -78 15 -100
3 -22 10 -71 16 -110 5 -38 12 -88 15 -110 3 -22 9 -65 14 -95 13 -75 17 -106
25 -170 4 -30 9 -63 11 -73 2 -10 17 -116 34 -235 17 -119 33 -228 35 -242 2
-14 7 -45 10 -70 3 -25 8 -52 10 -60 2 -8 6 -42 10 -75 3 -33 8 -67 10 -75 3
-8 6 -31 9 -50 2 -19 7 -51 10 -70 3 -19 8 -51 10 -70 10 -81 18 -137 22 -160
2 -14 7 -49 10 -78 6 -52 6 -53 -17 -48 -13 3 -76 8 -139 11 -63 4 -140 8
-170 10 -30 2 -93 7 -140 10 -89 6 -167 12 -272 20 -90 7 -219 16 -448 30 -47
3 -107 7 -135 10 -65 6 -182 14 -270 20 -38 2 -101 7 -140 9 -38 3 -108 8
-155 11 -47 3 -107 8 -135 10 -27 2 -88 7 -135 9 -92 6 -211 14 -304 21 -32 3
-95 8 -140 10 -45 3 -108 7 -141 10 -86 7 -199 15 -280 20 -38 2 -99 6 -135
10 -36 3 -105 7 -155 10 -49 3 -112 7 -140 10 -27 2 -93 7 -145 10 -52 4 -111
8 -130 10 -19 2 -82 6 -140 10 -58 3 -119 8 -135 10 -17 2 -82 6 -145 10 -63
4 -131 8 -150 10 -19 2 -82 6 -140 10 -58 3 -118 8 -135 10 -16 2 -77 7 -135
10 -58 3 -125 8 -150 10 -25 2 -90 6 -145 10 -55 4 -116 8 -135 10 -19 2 -84
6 -145 10 -60 3 -126 8 -145 10 -19 2 -78 7 -130 10 -52 3 -116 8 -141 10 -25
2 -86 6 -135 10 -49 3 -107 8 -130 11 l-40 6 12 96 c7 54 15 122 18 152 4 30
8 66 11 80 2 14 7 48 10 75 3 28 8 61 10 75 2 14 6 46 9 73 3 26 9 68 12 95 3
26 7 58 9 72 9 62 65 486 71 540 3 25 7 56 9 70 2 14 7 45 10 70 4 25 8 56 10
70 2 14 7 51 10 83 4 32 8 67 10 79 3 11 7 46 10 77 4 31 8 67 11 81 2 14 7
50 10 80 2 30 7 62 9 70 2 8 7 42 10 75 3 33 8 71 10 85 5 28 12 81 20 150 11
95 17 135 22 143 2 4 16 5 31 2 15 -2 70 -7 122 -10z m5840 -2890 c25 -2 79
-6 120 -10 41 -3 104 -7 140 -10 36 -2 101 -7 145 -9 44 -3 107 -8 140 -11 33
-2 96 -7 140 -10 96 -7 229 -17 400 -30 33 -3 96 -7 140 -10 44 -3 105 -8 135
-10 55 -5 118 -9 265 -20 44 -3 100 -8 125 -10 25 -2 86 -7 135 -10 50 -3 108
-8 130 -10 22 -2 76 -7 120 -10 90 -6 176 -13 268 -20 92 -8 162 -13 252 -20
44 -3 100 -8 125 -10 25 -2 79 -7 120 -10 41 -3 100 -8 130 -10 84 -8 146 -13
245 -20 50 -3 104 -8 120 -10 30 -4 99 -10 230 -20 39 -3 93 -8 120 -10 28 -3
82 -7 120 -10 39 -3 88 -8 110 -10 22 -2 70 -7 108 -10 37 -3 97 -7 135 -10
37 -3 85 -8 107 -10 22 -3 72 -7 110 -10 39 -3 90 -8 115 -10 25 -2 77 -7 115
-10 39 -3 86 -8 105 -11 19 -3 64 -7 100 -10 36 -2 153 -13 260 -24 107 -11
224 -22 260 -25 36 -3 81 -8 100 -10 19 -2 103 -11 185 -20 151 -15 221 -23
285 -30 19 -2 58 -7 85 -10 28 -3 64 -7 80 -9 71 -9 162 -19 190 -21 17 -1 89
-10 160 -19 72 -9 148 -18 170 -21 78 -9 337 -45 398 -54 34 -6 82 -13 107
-16 47 -6 74 -11 125 -19 17 -3 71 -12 120 -20 91 -15 229 -40 275 -50 14 -3
59 -13 100 -22 143 -31 325 -93 362 -124 43 -35 -3 -71 -151 -120 -83 -28
-304 -79 -426 -99 -33 -6 -73 -13 -90 -16 -36 -7 -479 -71 -550 -80 -27 -3
-79 -10 -115 -15 -36 -5 -90 -11 -120 -15 -30 -3 -89 -10 -130 -15 -73 -10
-99 -12 -225 -25 -33 -3 -71 -8 -85 -10 -14 -2 -61 -7 -105 -11 -44 -3 -88 -8
-97 -9 -16 -3 -99 -12 -193 -21 -40 -3 -128 -12 -195 -19 -19 -2 -66 -7 -105
-10 -38 -3 -88 -8 -110 -10 -22 -3 -71 -7 -108 -10 -38 -3 -86 -8 -107 -10
-21 -2 -74 -7 -117 -10 -43 -3 -94 -8 -113 -10 -19 -3 -71 -7 -115 -11 -44 -3
-97 -7 -117 -9 -20 -2 -72 -7 -115 -10 -43 -3 -94 -8 -113 -10 -19 -2 -75 -7
-125 -10 -49 -4 -106 -8 -125 -10 -19 -2 -78 -7 -130 -10 -52 -3 -106 -8 -120
-10 -14 -2 -70 -7 -125 -10 -55 -4 -116 -8 -135 -10 -19 -2 -78 -6 -130 -10
-52 -3 -113 -8 -135 -10 -54 -5 -185 -15 -265 -20 -36 -3 -92 -7 -125 -10 -33
-3 -98 -7 -145 -10 -47 -3 -110 -8 -140 -10 -101 -8 -212 -16 -279 -20 -83 -6
-199 -14 -271 -20 -30 -2 -93 -7 -140 -10 -47 -3 -119 -8 -160 -10 -41 -3
-109 -7 -150 -10 -87 -5 -220 -14 -305 -20 -108 -8 -265 -18 -445 -30 -184
-12 -247 -16 -305 -20 -33 -3 -100 -7 -150 -10 -126 -7 -250 -15 -320 -20 -33
-2 -104 -7 -157 -11 l-97 -6 -11 41 c-6 23 -13 58 -16 78 -2 20 -7 50 -10 67
-3 17 -7 42 -9 56 -2 14 -6 39 -8 55 -3 17 -8 50 -11 75 -3 25 -8 56 -11 70
-3 14 -7 43 -10 65 -3 22 -9 65 -15 95 -5 30 -11 71 -14 90 -9 63 -56 373 -76
495 -10 66 -21 138 -24 160 -4 22 -8 51 -11 65 -2 14 -7 43 -10 65 -3 22 -7
51 -9 65 -2 14 -7 47 -11 73 -7 50 -7 54 -19 120 l-7 39 93 -7 c51 -4 113 -8
138 -10z m-9 -1824 c4 -1 9 -16 12 -33 23 -129 37 -209 42 -243 3 -23 7 -52
10 -65 7 -35 23 -128 29 -170 3 -19 8 -46 10 -60 3 -14 7 -38 9 -55 3 -16 10
-57 15 -90 6 -33 13 -73 16 -90 6 -38 35 -212 41 -245 11 -62 55 -329 60 -365
4 -22 8 -47 10 -55 3 -8 7 -32 11 -54 3 -21 8 -48 10 -60 5 -23 9 -50 19 -116
4 -25 9 -54 11 -65 19 -95 25 -155 17 -156 -4 0 -17 -2 -28 -4 -11 -2 -56 -7
-100 -10 -44 -3 -105 -8 -135 -10 -30 -2 -99 -7 -153 -10 -55 -3 -115 -8 -135
-10 -21 -2 -86 -6 -147 -10 -60 -3 -130 -8 -155 -10 -25 -2 -94 -7 -155 -11
-60 -3 -126 -8 -145 -9 -19 -1 -84 -5 -145 -9 -60 -4 -137 -9 -170 -11 -33 -3
-100 -7 -150 -10 -49 -3 -119 -8 -155 -10 -36 -3 -105 -7 -155 -10 -49 -3
-115 -7 -145 -10 -30 -2 -102 -7 -160 -10 -58 -3 -134 -8 -170 -10 -36 -3
-108 -7 -160 -10 -52 -3 -113 -7 -135 -9 -22 -3 -92 -7 -155 -11 -63 -4 -135
-8 -160 -10 -25 -1 -99 -6 -165 -10 -66 -4 -140 -8 -165 -10 -25 -2 -92 -6
-150 -10 -58 -3 -130 -8 -160 -10 -30 -2 -100 -6 -155 -10 -55 -3 -129 -8
-165 -10 -36 -3 -103 -7 -150 -10 -47 -3 -116 -7 -155 -10 -38 -3 -108 -7
-155 -10 -47 -2 -119 -7 -160 -9 -41 -3 -115 -8 -165 -11 -49 -3 -117 -7 -150
-10 -33 -2 -98 -7 -145 -9 -78 -5 -172 -11 -325 -21 -33 -2 -100 -6 -150 -9
-49 -4 -121 -8 -160 -11 -38 -2 -108 -7 -155 -10 -47 -4 -110 -8 -140 -10
-133 -8 -260 -16 -320 -20 -36 -3 -108 -8 -160 -11 -52 -3 -120 -7 -150 -9
-30 -2 -98 -7 -150 -10 -52 -3 -117 -7 -145 -10 -49 -4 -199 -13 -343 -20
l-73 -3 5 26 c8 39 44 259 51 312 3 25 8 52 11 61 3 10 6 30 9 45 2 16 6 43 9
59 2 17 7 46 10 65 3 19 13 78 22 130 9 52 17 104 19 115 12 82 47 309 55 350
5 28 12 68 15 90 11 81 32 216 39 255 6 33 16 97 22 139 2 19 6 46 9 60 2 14
13 80 25 147 11 67 20 124 20 127 0 7 59 15 165 22 50 4 113 8 140 10 28 2 93
6 145 10 52 3 122 8 155 10 33 2 112 7 175 10 63 4 140 8 170 10 30 3 100 7
155 10 55 3 134 8 175 11 41 3 102 7 135 9 33 3 105 7 160 10 55 3 132 7 170
10 108 7 231 14 335 20 52 3 120 7 150 10 30 2 102 7 160 10 160 9 238 14 320
20 41 3 118 7 170 10 52 3 120 7 150 10 30 2 107 7 170 10 63 3 140 8 170 10
57 4 221 14 325 20 87 5 273 17 325 20 25 2 97 6 160 9 63 4 140 9 170 11 30
2 102 7 160 10 58 3 134 8 170 10 122 8 254 17 470 30 47 3 126 7 175 10 96 5
212 13 310 20 33 3 105 7 160 10 55 3 125 7 155 10 30 2 105 7 165 10 61 3
130 8 155 10 25 2 104 6 175 10 72 4 131 7 132 8 1 2 90 0 104 -2z m-7077
-2472 c2 -2 -2 -38 -9 -79 -7 -41 -16 -91 -20 -110 -4 -27 -53 -284 -101 -540
-29 -155 -66 -338 -70 -351 -5 -17 -3 -17 -179 -5 -49 4 -121 9 -160 11 -38 3
-99 7 -135 10 -36 3 -96 7 -135 10 -65 4 -118 8 -285 20 -36 3 -94 7 -130 10
-36 3 -94 7 -130 10 -67 6 -128 11 -265 20 -44 3 -100 8 -125 10 -25 2 -85 7
-133 10 -49 4 -96 8 -105 10 -9 1 -62 6 -117 10 -55 4 -116 8 -135 10 -19 2
-71 6 -115 10 -44 4 -98 9 -120 11 -22 2 -71 6 -110 9 -38 3 -88 7 -110 10
-22 2 -71 7 -110 11 -38 3 -81 7 -95 9 -14 1 -61 5 -105 9 -44 4 -98 9 -120
11 -66 7 -127 14 -190 20 -33 3 -100 10 -150 16 -49 5 -109 12 -132 14 -24 3
-64 7 -90 10 -27 3 -66 8 -88 10 -22 3 -58 8 -80 10 -22 3 -53 7 -70 9 -38 6
-96 13 -160 21 -336 40 -714 120 -812 172 -43 23 -47 37 -14 56 30 17 217 75
271 83 19 3 42 7 50 9 8 2 29 7 45 10 17 2 41 7 55 10 14 3 54 10 90 16 36 5
76 12 90 14 26 5 83 13 135 20 168 22 274 37 295 40 14 2 54 6 90 10 36 4 76
8 90 10 14 2 54 7 90 10 36 4 79 9 95 11 54 6 119 13 185 19 36 3 76 8 90 10
23 4 96 11 205 20 79 6 191 16 225 20 75 9 138 15 200 20 88 7 163 13 235 20
33 3 85 8 115 10 50 4 139 11 230 20 19 2 78 6 130 9 52 4 115 8 140 11 58 6
146 13 240 20 41 3 100 8 130 10 118 10 178 14 265 20 50 3 108 8 130 10 45 5
167 14 265 20 36 3 88 7 115 9 28 3 91 8 140 12 50 3 110 7 135 9 25 2 95 7
155 10 61 4 111 8 112 9 5 4 62 0 67 -5z"/>
</g>
</svg>
